<mxfile host="app.diagrams.net" agent="Mozilla/5.0 (Windows NT 10.0; Win64; x64) AppleWebKit/537.36 (KHTML, like Gecko) Chrome/135.0.0.0 Safari/537.36" version="26.2.14" pages="4">
  <diagram id="C5RBs43oDa-KdzZeNtuy" name="salary">
    <mxGraphModel grid="1" page="1" gridSize="10" guides="1" tooltips="1" connect="1" arrows="1" fold="1" pageScale="1" pageWidth="827" pageHeight="1169" math="0" shadow="0">
      <root>
        <mxCell id="WIyWlLk6GJQsqaUBKTNV-0" />
        <mxCell id="WIyWlLk6GJQsqaUBKTNV-1" parent="WIyWlLk6GJQsqaUBKTNV-0" />
        <mxCell id="u3_Vqc8BjqVJQEueYiDi-17" style="edgeStyle=orthogonalEdgeStyle;rounded=0;orthogonalLoop=1;jettySize=auto;html=1;endArrow=block;endFill=0;" edge="1" parent="WIyWlLk6GJQsqaUBKTNV-1" source="zkfFHV4jXpPFQw0GAbJ--0" target="zkfFHV4jXpPFQw0GAbJ--17">
          <mxGeometry relative="1" as="geometry" />
        </mxCell>
        <mxCell id="zkfFHV4jXpPFQw0GAbJ--0" value="Person" style="swimlane;fontStyle=2;align=center;verticalAlign=top;childLayout=stackLayout;horizontal=1;startSize=26;horizontalStack=0;resizeParent=1;resizeLast=0;collapsible=1;marginBottom=0;rounded=0;shadow=0;strokeWidth=1;" vertex="1" parent="WIyWlLk6GJQsqaUBKTNV-1">
          <mxGeometry x="160" y="30" width="180" height="160" as="geometry">
            <mxRectangle x="230" y="140" width="160" height="26" as="alternateBounds" />
          </mxGeometry>
        </mxCell>
        <mxCell id="zkfFHV4jXpPFQw0GAbJ--1" value="-name: string;&#xa;-baseSalary: " style="text;align=left;verticalAlign=top;spacingLeft=4;spacingRight=4;overflow=hidden;rotatable=0;points=[[0,0.5],[1,0.5]];portConstraint=eastwest;" vertex="1" parent="zkfFHV4jXpPFQw0GAbJ--0">
          <mxGeometry y="26" width="180" height="44" as="geometry" />
        </mxCell>
        <mxCell id="zkfFHV4jXpPFQw0GAbJ--4" value="" style="line;html=1;strokeWidth=1;align=left;verticalAlign=middle;spacingTop=-1;spacingLeft=3;spacingRight=3;rotatable=0;labelPosition=right;points=[];portConstraint=eastwest;" vertex="1" parent="zkfFHV4jXpPFQw0GAbJ--0">
          <mxGeometry y="70" width="180" height="8" as="geometry" />
        </mxCell>
        <mxCell id="zkfFHV4jXpPFQw0GAbJ--5" value="+ getName(): string&#xa;+ setName(string): void&#xa; + getBaseSalary(): double&#xa; + setBaseSalary(double): void&#xa; + calculatedSalary(): double" style="text;align=left;verticalAlign=top;spacingLeft=4;spacingRight=4;overflow=hidden;rotatable=0;points=[[0,0.5],[1,0.5]];portConstraint=eastwest;" vertex="1" parent="zkfFHV4jXpPFQw0GAbJ--0">
          <mxGeometry y="78" width="180" height="82" as="geometry" />
        </mxCell>
        <mxCell id="u3_Vqc8BjqVJQEueYiDi-20" style="edgeStyle=orthogonalEdgeStyle;rounded=0;orthogonalLoop=1;jettySize=auto;html=1;endArrow=block;endFill=0;" edge="1" parent="WIyWlLk6GJQsqaUBKTNV-1" source="zkfFHV4jXpPFQw0GAbJ--6" target="u3_Vqc8BjqVJQEueYiDi-0">
          <mxGeometry relative="1" as="geometry" />
        </mxCell>
        <mxCell id="u3_Vqc8BjqVJQEueYiDi-27" style="edgeStyle=orthogonalEdgeStyle;rounded=0;orthogonalLoop=1;jettySize=auto;html=1;entryX=0.5;entryY=1;entryDx=0;entryDy=0;endArrow=none;startFill=0;" edge="1" parent="WIyWlLk6GJQsqaUBKTNV-1" source="zkfFHV4jXpPFQw0GAbJ--6" target="u3_Vqc8BjqVJQEueYiDi-13">
          <mxGeometry relative="1" as="geometry">
            <Array as="points">
              <mxPoint x="870" y="530" />
            </Array>
          </mxGeometry>
        </mxCell>
        <mxCell id="zkfFHV4jXpPFQw0GAbJ--6" value="Deductions" style="swimlane;fontStyle=0;align=center;verticalAlign=top;childLayout=stackLayout;horizontal=1;startSize=26;horizontalStack=0;resizeParent=1;resizeLast=0;collapsible=1;marginBottom=0;rounded=0;shadow=0;strokeWidth=1;" vertex="1" parent="WIyWlLk6GJQsqaUBKTNV-1">
          <mxGeometry x="120" y="360" width="190" height="190" as="geometry">
            <mxRectangle x="130" y="380" width="160" height="26" as="alternateBounds" />
          </mxGeometry>
        </mxCell>
        <mxCell id="zkfFHV4jXpPFQw0GAbJ--7" value="-baseSalary: double&#xa;-percentage: double" style="text;align=left;verticalAlign=top;spacingLeft=4;spacingRight=4;overflow=hidden;rotatable=0;points=[[0,0.5],[1,0.5]];portConstraint=eastwest;" vertex="1" parent="zkfFHV4jXpPFQw0GAbJ--6">
          <mxGeometry y="26" width="190" height="54" as="geometry" />
        </mxCell>
        <mxCell id="zkfFHV4jXpPFQw0GAbJ--9" value="" style="line;html=1;strokeWidth=1;align=left;verticalAlign=middle;spacingTop=-1;spacingLeft=3;spacingRight=3;rotatable=0;labelPosition=right;points=[];portConstraint=eastwest;" vertex="1" parent="zkfFHV4jXpPFQw0GAbJ--6">
          <mxGeometry y="80" width="190" height="8" as="geometry" />
        </mxCell>
        <mxCell id="zkfFHV4jXpPFQw0GAbJ--10" value="+ setBaseSalary(double): void&#xa;+ getBaseSalary(): double&#xa;+ setPercentage(double): void&#xa;+ getPercentage(): double&#xa;+ calculatedDeductions(): double" style="text;align=left;verticalAlign=top;spacingLeft=4;spacingRight=4;overflow=hidden;rotatable=0;points=[[0,0.5],[1,0.5]];portConstraint=eastwest;fontStyle=0" vertex="1" parent="zkfFHV4jXpPFQw0GAbJ--6">
          <mxGeometry y="88" width="190" height="102" as="geometry" />
        </mxCell>
        <mxCell id="zkfFHV4jXpPFQw0GAbJ--13" value="Overtime" style="swimlane;fontStyle=0;align=center;verticalAlign=top;childLayout=stackLayout;horizontal=1;startSize=26;horizontalStack=0;resizeParent=1;resizeLast=0;collapsible=1;marginBottom=0;rounded=0;shadow=0;strokeWidth=1;" vertex="1" parent="WIyWlLk6GJQsqaUBKTNV-1">
          <mxGeometry x="420" y="220" width="210" height="268" as="geometry">
            <mxRectangle x="340" y="380" width="170" height="26" as="alternateBounds" />
          </mxGeometry>
        </mxCell>
        <mxCell id="zkfFHV4jXpPFQw0GAbJ--14" value="- dayTime: double&#xa;- nightTime: double&#xa;-holidayTime: double&#xa;- dayRate: double&#xa;- nightRate: double&#xa;- holidayRate: double" style="text;align=left;verticalAlign=top;spacingLeft=4;spacingRight=4;overflow=hidden;rotatable=0;points=[[0,0.5],[1,0.5]];portConstraint=eastwest;" vertex="1" parent="zkfFHV4jXpPFQw0GAbJ--13">
          <mxGeometry y="26" width="210" height="104" as="geometry" />
        </mxCell>
        <mxCell id="zkfFHV4jXpPFQw0GAbJ--15" value="" style="line;html=1;strokeWidth=1;align=left;verticalAlign=middle;spacingTop=-1;spacingLeft=3;spacingRight=3;rotatable=0;labelPosition=right;points=[];portConstraint=eastwest;" vertex="1" parent="zkfFHV4jXpPFQw0GAbJ--13">
          <mxGeometry y="130" width="210" height="8" as="geometry" />
        </mxCell>
        <mxCell id="u3_Vqc8BjqVJQEueYiDi-12" value="&lt;div&gt;&lt;span style=&quot;background-color: transparent; color: light-dark(rgb(0, 0, 0), rgb(255, 255, 255));&quot;&gt;+ setDayTime(double): void&lt;/span&gt;&lt;/div&gt;&lt;div&gt;+ setNightTime(double): void&lt;/div&gt;&lt;div&gt;+ setHolidayTime(double): void&lt;/div&gt;&lt;div&gt;+ setDayRate(double): void&lt;/div&gt;&lt;div&gt;+ setNightRate(double): void&lt;/div&gt;&lt;div&gt;+ setHolidayRate(double): void&lt;/div&gt;&lt;div&gt;+ calculatedSalary(double): double&lt;/div&gt;" style="text;html=1;align=left;verticalAlign=middle;resizable=0;points=[];autosize=1;strokeColor=none;fillColor=none;" vertex="1" parent="zkfFHV4jXpPFQw0GAbJ--13">
          <mxGeometry y="138" width="210" height="110" as="geometry" />
        </mxCell>
        <mxCell id="u3_Vqc8BjqVJQEueYiDi-18" style="edgeStyle=orthogonalEdgeStyle;rounded=0;orthogonalLoop=1;jettySize=auto;html=1;endArrow=block;endFill=0;" edge="1" parent="WIyWlLk6GJQsqaUBKTNV-1" source="zkfFHV4jXpPFQw0GAbJ--17" target="zkfFHV4jXpPFQw0GAbJ--13">
          <mxGeometry relative="1" as="geometry" />
        </mxCell>
        <mxCell id="u3_Vqc8BjqVJQEueYiDi-19" style="edgeStyle=orthogonalEdgeStyle;rounded=0;orthogonalLoop=1;jettySize=auto;html=1;exitX=0;exitY=0.5;exitDx=0;exitDy=0;endArrow=block;endFill=0;" edge="1" parent="WIyWlLk6GJQsqaUBKTNV-1" source="zkfFHV4jXpPFQw0GAbJ--24" target="zkfFHV4jXpPFQw0GAbJ--6">
          <mxGeometry relative="1" as="geometry">
            <Array as="points">
              <mxPoint x="400" y="140" />
              <mxPoint x="400" y="220" />
              <mxPoint x="215" y="220" />
            </Array>
          </mxGeometry>
        </mxCell>
        <mxCell id="u3_Vqc8BjqVJQEueYiDi-23" style="edgeStyle=orthogonalEdgeStyle;rounded=0;orthogonalLoop=1;jettySize=auto;html=1;endArrow=none;startFill=0;" edge="1" parent="WIyWlLk6GJQsqaUBKTNV-1" source="zkfFHV4jXpPFQw0GAbJ--17" target="u3_Vqc8BjqVJQEueYiDi-13">
          <mxGeometry relative="1" as="geometry">
            <Array as="points">
              <mxPoint x="530" y="-80" />
            </Array>
          </mxGeometry>
        </mxCell>
        <mxCell id="zkfFHV4jXpPFQw0GAbJ--17" value="Employee" style="swimlane;fontStyle=0;align=center;verticalAlign=top;childLayout=stackLayout;horizontal=1;startSize=26;horizontalStack=0;resizeParent=1;resizeLast=0;collapsible=1;marginBottom=0;rounded=0;shadow=0;strokeWidth=1;" vertex="1" parent="WIyWlLk6GJQsqaUBKTNV-1">
          <mxGeometry x="450" y="50" width="160" height="120" as="geometry">
            <mxRectangle x="550" y="140" width="160" height="26" as="alternateBounds" />
          </mxGeometry>
        </mxCell>
        <mxCell id="zkfFHV4jXpPFQw0GAbJ--18" value="- subsidy: double;" style="text;align=left;verticalAlign=top;spacingLeft=4;spacingRight=4;overflow=hidden;rotatable=0;points=[[0,0.5],[1,0.5]];portConstraint=eastwest;" vertex="1" parent="zkfFHV4jXpPFQw0GAbJ--17">
          <mxGeometry y="26" width="160" height="26" as="geometry" />
        </mxCell>
        <mxCell id="zkfFHV4jXpPFQw0GAbJ--23" value="" style="line;html=1;strokeWidth=1;align=left;verticalAlign=middle;spacingTop=-1;spacingLeft=3;spacingRight=3;rotatable=0;labelPosition=right;points=[];portConstraint=eastwest;" vertex="1" parent="zkfFHV4jXpPFQw0GAbJ--17">
          <mxGeometry y="52" width="160" height="8" as="geometry" />
        </mxCell>
        <mxCell id="zkfFHV4jXpPFQw0GAbJ--24" value="+ getSubsidy(): double&#xa;+ setSubsidy(double): void&#xa;+ calculatedSalary(): double" style="text;align=left;verticalAlign=top;spacingLeft=4;spacingRight=4;overflow=hidden;rotatable=0;points=[[0,0.5],[1,0.5]];portConstraint=eastwest;" vertex="1" parent="zkfFHV4jXpPFQw0GAbJ--17">
          <mxGeometry y="60" width="160" height="60" as="geometry" />
        </mxCell>
        <mxCell id="u3_Vqc8BjqVJQEueYiDi-30" style="edgeStyle=orthogonalEdgeStyle;rounded=0;orthogonalLoop=1;jettySize=auto;html=1;entryX=1;entryY=0;entryDx=0;entryDy=0;endArrow=none;startFill=0;" edge="1" parent="WIyWlLk6GJQsqaUBKTNV-1" source="u3_Vqc8BjqVJQEueYiDi-0" target="u3_Vqc8BjqVJQEueYiDi-13">
          <mxGeometry relative="1" as="geometry">
            <Array as="points">
              <mxPoint x="65" y="940" />
              <mxPoint x="1170" y="940" />
              <mxPoint x="1170" y="290" />
            </Array>
          </mxGeometry>
        </mxCell>
        <mxCell id="u3_Vqc8BjqVJQEueYiDi-0" value="Health" style="swimlane;fontStyle=0;align=center;verticalAlign=top;childLayout=stackLayout;horizontal=1;startSize=26;horizontalStack=0;resizeParent=1;resizeLast=0;collapsible=1;marginBottom=0;rounded=0;shadow=0;strokeWidth=1;" vertex="1" parent="WIyWlLk6GJQsqaUBKTNV-1">
          <mxGeometry x="-50" y="640" width="180" height="120" as="geometry">
            <mxRectangle x="130" y="380" width="160" height="26" as="alternateBounds" />
          </mxGeometry>
        </mxCell>
        <mxCell id="u3_Vqc8BjqVJQEueYiDi-2" value="" style="line;html=1;strokeWidth=1;align=left;verticalAlign=middle;spacingTop=-1;spacingLeft=3;spacingRight=3;rotatable=0;labelPosition=right;points=[];portConstraint=eastwest;" vertex="1" parent="u3_Vqc8BjqVJQEueYiDi-0">
          <mxGeometry y="26" width="180" height="64" as="geometry" />
        </mxCell>
        <mxCell id="u3_Vqc8BjqVJQEueYiDi-33" value="&lt;span style=&quot;text-align: left;&quot;&gt;+ calculatedDeductions(): double&lt;/span&gt;" style="text;html=1;align=center;verticalAlign=middle;resizable=0;points=[];autosize=1;strokeColor=none;fillColor=none;" vertex="1" parent="u3_Vqc8BjqVJQEueYiDi-0">
          <mxGeometry y="90" width="180" height="30" as="geometry" />
        </mxCell>
        <mxCell id="u3_Vqc8BjqVJQEueYiDi-29" style="edgeStyle=orthogonalEdgeStyle;rounded=0;orthogonalLoop=1;jettySize=auto;html=1;entryX=1;entryY=0;entryDx=0;entryDy=0;endArrow=none;startFill=0;" edge="1" parent="WIyWlLk6GJQsqaUBKTNV-1" source="u3_Vqc8BjqVJQEueYiDi-4" target="u3_Vqc8BjqVJQEueYiDi-13">
          <mxGeometry relative="1" as="geometry">
            <Array as="points">
              <mxPoint x="205" y="850" />
              <mxPoint x="1060" y="850" />
              <mxPoint x="1060" y="330" />
              <mxPoint x="990" y="330" />
            </Array>
          </mxGeometry>
        </mxCell>
        <mxCell id="u3_Vqc8BjqVJQEueYiDi-4" value="Pension" style="swimlane;fontStyle=0;align=center;verticalAlign=top;childLayout=stackLayout;horizontal=1;startSize=26;horizontalStack=0;resizeParent=1;resizeLast=0;collapsible=1;marginBottom=0;rounded=0;shadow=0;strokeWidth=1;" vertex="1" parent="WIyWlLk6GJQsqaUBKTNV-1">
          <mxGeometry x="150" y="640" width="190" height="120" as="geometry">
            <mxRectangle x="130" y="380" width="160" height="26" as="alternateBounds" />
          </mxGeometry>
        </mxCell>
        <mxCell id="u3_Vqc8BjqVJQEueYiDi-5" value="" style="line;html=1;strokeWidth=1;align=left;verticalAlign=middle;spacingTop=-1;spacingLeft=3;spacingRight=3;rotatable=0;labelPosition=right;points=[];portConstraint=eastwest;" vertex="1" parent="u3_Vqc8BjqVJQEueYiDi-4">
          <mxGeometry y="26" width="190" height="64" as="geometry" />
        </mxCell>
        <mxCell id="u3_Vqc8BjqVJQEueYiDi-32" value="&lt;span style=&quot;text-align: left;&quot;&gt;+ calculatedDeductions(): double&lt;/span&gt;" style="text;html=1;align=center;verticalAlign=middle;resizable=0;points=[];autosize=1;strokeColor=none;fillColor=none;" vertex="1" parent="u3_Vqc8BjqVJQEueYiDi-4">
          <mxGeometry y="90" width="190" height="30" as="geometry" />
        </mxCell>
        <mxCell id="u3_Vqc8BjqVJQEueYiDi-28" style="edgeStyle=orthogonalEdgeStyle;rounded=0;orthogonalLoop=1;jettySize=auto;html=1;entryX=1;entryY=0.5;entryDx=0;entryDy=0;endArrow=none;startFill=0;" edge="1" parent="WIyWlLk6GJQsqaUBKTNV-1" source="u3_Vqc8BjqVJQEueYiDi-6" target="u3_Vqc8BjqVJQEueYiDi-16">
          <mxGeometry relative="1" as="geometry">
            <Array as="points">
              <mxPoint x="1010" y="730" />
              <mxPoint x="1010" y="352" />
            </Array>
          </mxGeometry>
        </mxCell>
        <mxCell id="u3_Vqc8BjqVJQEueYiDi-6" value="Arl" style="swimlane;fontStyle=0;align=center;verticalAlign=top;childLayout=stackLayout;horizontal=1;startSize=26;horizontalStack=0;resizeParent=1;resizeLast=0;collapsible=1;marginBottom=0;rounded=0;shadow=0;strokeWidth=1;" vertex="1" parent="WIyWlLk6GJQsqaUBKTNV-1">
          <mxGeometry x="370" y="630" width="200" height="190" as="geometry">
            <mxRectangle x="130" y="380" width="160" height="26" as="alternateBounds" />
          </mxGeometry>
        </mxCell>
        <mxCell id="u3_Vqc8BjqVJQEueYiDi-8" value="&lt;div&gt;-risk: int&lt;/div&gt;&lt;div&gt;&amp;nbsp;-riskPercentages: array&lt;/div&gt;" style="text;html=1;align=left;verticalAlign=middle;resizable=0;points=[];autosize=1;strokeColor=none;fillColor=none;" vertex="1" parent="u3_Vqc8BjqVJQEueYiDi-6">
          <mxGeometry y="26" width="200" height="40" as="geometry" />
        </mxCell>
        <mxCell id="u3_Vqc8BjqVJQEueYiDi-7" value="" style="line;html=1;strokeWidth=1;align=left;verticalAlign=middle;spacingTop=-1;spacingLeft=3;spacingRight=3;rotatable=0;labelPosition=right;points=[];portConstraint=eastwest;" vertex="1" parent="u3_Vqc8BjqVJQEueYiDi-6">
          <mxGeometry y="66" width="200" height="64" as="geometry" />
        </mxCell>
        <mxCell id="u3_Vqc8BjqVJQEueYiDi-10" value="&lt;div&gt;&lt;span&gt;&amp;nbsp;+ setRisk(int): void&lt;/span&gt;&lt;/div&gt;&lt;div&gt;&lt;span&gt;&amp;nbsp;+ getRisk(): int&lt;/span&gt;&lt;/div&gt;&lt;div&gt;&lt;span&gt;&amp;nbsp;+ calculatedDeductions(): double&lt;/span&gt;&lt;/div&gt;" style="text;html=1;align=left;verticalAlign=middle;resizable=0;points=[];autosize=1;strokeColor=none;fillColor=none;fontStyle=0" vertex="1" parent="u3_Vqc8BjqVJQEueYiDi-6">
          <mxGeometry y="130" width="200" height="60" as="geometry" />
        </mxCell>
        <mxCell id="u3_Vqc8BjqVJQEueYiDi-13" value="salaryCalculator" style="swimlane;fontStyle=2;align=center;verticalAlign=top;childLayout=stackLayout;horizontal=1;startSize=26;horizontalStack=0;resizeParent=1;resizeLast=0;collapsible=1;marginBottom=0;rounded=0;shadow=0;strokeWidth=1;" vertex="1" parent="WIyWlLk6GJQsqaUBKTNV-1">
          <mxGeometry x="750" y="290" width="240" height="116" as="geometry">
            <mxRectangle x="230" y="140" width="160" height="26" as="alternateBounds" />
          </mxGeometry>
        </mxCell>
        <mxCell id="u3_Vqc8BjqVJQEueYiDi-16" value="+ calculateEmployeeSalary(Employee,&#xa;Overtime,Health,  Pension,  Arl): double" style="text;align=left;verticalAlign=top;spacingLeft=4;spacingRight=4;overflow=hidden;rotatable=0;points=[[0,0.5],[1,0.5]];portConstraint=eastwest;" vertex="1" parent="u3_Vqc8BjqVJQEueYiDi-13">
          <mxGeometry y="26" width="240" height="56" as="geometry" />
        </mxCell>
        <mxCell id="u3_Vqc8BjqVJQEueYiDi-21" style="edgeStyle=orthogonalEdgeStyle;rounded=0;orthogonalLoop=1;jettySize=auto;html=1;endArrow=block;endFill=0;" edge="1" parent="WIyWlLk6GJQsqaUBKTNV-1" source="zkfFHV4jXpPFQw0GAbJ--10" target="u3_Vqc8BjqVJQEueYiDi-4">
          <mxGeometry relative="1" as="geometry">
            <Array as="points">
              <mxPoint x="215" y="595" />
              <mxPoint x="205" y="595" />
            </Array>
          </mxGeometry>
        </mxCell>
        <mxCell id="u3_Vqc8BjqVJQEueYiDi-22" style="edgeStyle=orthogonalEdgeStyle;rounded=0;orthogonalLoop=1;jettySize=auto;html=1;entryX=0.5;entryY=0;entryDx=0;entryDy=0;endArrow=block;endFill=0;" edge="1" parent="WIyWlLk6GJQsqaUBKTNV-1" source="zkfFHV4jXpPFQw0GAbJ--10" target="u3_Vqc8BjqVJQEueYiDi-6">
          <mxGeometry relative="1" as="geometry">
            <Array as="points">
              <mxPoint x="215" y="600" />
              <mxPoint x="470" y="600" />
            </Array>
          </mxGeometry>
        </mxCell>
        <mxCell id="u3_Vqc8BjqVJQEueYiDi-26" style="edgeStyle=orthogonalEdgeStyle;rounded=0;orthogonalLoop=1;jettySize=auto;html=1;endArrow=none;startFill=0;" edge="1" parent="WIyWlLk6GJQsqaUBKTNV-1" source="zkfFHV4jXpPFQw0GAbJ--14" target="u3_Vqc8BjqVJQEueYiDi-13">
          <mxGeometry relative="1" as="geometry" />
        </mxCell>
        <mxCell id="u3_Vqc8BjqVJQEueYiDi-34" value="abstract" style="text;html=1;align=center;verticalAlign=middle;whiteSpace=wrap;rounded=0;" vertex="1" parent="WIyWlLk6GJQsqaUBKTNV-1">
          <mxGeometry x="340" y="30" width="60" height="30" as="geometry" />
        </mxCell>
        <mxCell id="u3_Vqc8BjqVJQEueYiDi-36" value="abstract" style="text;html=1;align=center;verticalAlign=middle;whiteSpace=wrap;rounded=0;" vertex="1" parent="WIyWlLk6GJQsqaUBKTNV-1">
          <mxGeometry x="310" y="360" width="60" height="30" as="geometry" />
        </mxCell>
      </root>
    </mxGraphModel>
  </diagram>
  <diagram name="GYM" id="9nyqWtT9s7cJ73tt1fXD">
    <mxGraphModel grid="1" page="1" gridSize="10" guides="1" tooltips="1" connect="1" arrows="1" fold="1" pageScale="1" pageWidth="827" pageHeight="1169" math="0" shadow="0">
      <root>
        <mxCell id="UkIttawQEWmzdT5pK0yn-0" />
        <mxCell id="UkIttawQEWmzdT5pK0yn-1" parent="UkIttawQEWmzdT5pK0yn-0" />
        <mxCell id="4qt6q4vHOvjPI_fCA_1c-0" style="edgeStyle=orthogonalEdgeStyle;rounded=0;orthogonalLoop=1;jettySize=auto;html=1;endArrow=block;endFill=0;" edge="1" parent="UkIttawQEWmzdT5pK0yn-1" source="UkIttawQEWmzdT5pK0yn-3" target="UkIttawQEWmzdT5pK0yn-25">
          <mxGeometry relative="1" as="geometry" />
        </mxCell>
        <mxCell id="4qt6q4vHOvjPI_fCA_1c-2" style="edgeStyle=orthogonalEdgeStyle;rounded=0;orthogonalLoop=1;jettySize=auto;html=1;endArrow=block;endFill=0;" edge="1" parent="UkIttawQEWmzdT5pK0yn-1" source="UkIttawQEWmzdT5pK0yn-3" target="UkIttawQEWmzdT5pK0yn-33">
          <mxGeometry relative="1" as="geometry" />
        </mxCell>
        <mxCell id="4qt6q4vHOvjPI_fCA_1c-3" style="edgeStyle=orthogonalEdgeStyle;rounded=0;orthogonalLoop=1;jettySize=auto;html=1;endArrow=none;startFill=0;" edge="1" parent="UkIttawQEWmzdT5pK0yn-1" source="UkIttawQEWmzdT5pK0yn-3" target="UkIttawQEWmzdT5pK0yn-14">
          <mxGeometry relative="1" as="geometry" />
        </mxCell>
        <mxCell id="4qt6q4vHOvjPI_fCA_1c-4" style="edgeStyle=orthogonalEdgeStyle;rounded=0;orthogonalLoop=1;jettySize=auto;html=1;endArrow=none;startFill=0;" edge="1" parent="UkIttawQEWmzdT5pK0yn-1" source="UkIttawQEWmzdT5pK0yn-3">
          <mxGeometry relative="1" as="geometry">
            <Array as="points">
              <mxPoint x="-110" y="33" />
              <mxPoint x="-110" y="33" />
            </Array>
            <mxPoint x="-430" y="33" as="targetPoint" />
          </mxGeometry>
        </mxCell>
        <mxCell id="UkIttawQEWmzdT5pK0yn-3" value="Plan" style="swimlane;fontStyle=2;align=center;verticalAlign=top;childLayout=stackLayout;horizontal=1;startSize=26;horizontalStack=0;resizeParent=1;resizeLast=0;collapsible=1;marginBottom=0;rounded=0;shadow=0;strokeWidth=1;" vertex="1" parent="UkIttawQEWmzdT5pK0yn-1">
          <mxGeometry x="-100" y="30" width="200" height="170" as="geometry">
            <mxRectangle x="230" y="140" width="160" height="26" as="alternateBounds" />
          </mxGeometry>
        </mxCell>
        <mxCell id="UkIttawQEWmzdT5pK0yn-4" value="-name: String&#xa; - cost: double&#xa;- service: String" style="text;align=left;verticalAlign=top;spacingLeft=4;spacingRight=4;overflow=hidden;rotatable=0;points=[[0,0.5],[1,0.5]];portConstraint=eastwest;" vertex="1" parent="UkIttawQEWmzdT5pK0yn-3">
          <mxGeometry y="26" width="200" height="54" as="geometry" />
        </mxCell>
        <mxCell id="UkIttawQEWmzdT5pK0yn-5" value="" style="line;html=1;strokeWidth=1;align=left;verticalAlign=middle;spacingTop=-1;spacingLeft=3;spacingRight=3;rotatable=0;labelPosition=right;points=[];portConstraint=eastwest;" vertex="1" parent="UkIttawQEWmzdT5pK0yn-3">
          <mxGeometry y="80" width="200" height="8" as="geometry" />
        </mxCell>
        <mxCell id="UkIttawQEWmzdT5pK0yn-6" value="+getName(): String&#xa;+ getCost(): double&#xa;+ getService(): String&#xa;+ getServices(): String (abstract)&#xa;&#xa;&#xa;&#xa;" style="text;align=left;verticalAlign=top;spacingLeft=4;spacingRight=4;overflow=hidden;rotatable=0;points=[[0,0.5],[1,0.5]];portConstraint=eastwest;" vertex="1" parent="UkIttawQEWmzdT5pK0yn-3">
          <mxGeometry y="88" width="200" height="82" as="geometry" />
        </mxCell>
        <mxCell id="UkIttawQEWmzdT5pK0yn-13" value="User" style="swimlane;fontStyle=0;align=center;verticalAlign=top;childLayout=stackLayout;horizontal=1;startSize=26;horizontalStack=0;resizeParent=1;resizeLast=0;collapsible=1;marginBottom=0;rounded=0;shadow=0;strokeWidth=1;" vertex="1" parent="UkIttawQEWmzdT5pK0yn-1">
          <mxGeometry x="330" y="-140" width="260" height="368" as="geometry">
            <mxRectangle x="340" y="380" width="170" height="26" as="alternateBounds" />
          </mxGeometry>
        </mxCell>
        <mxCell id="UkIttawQEWmzdT5pK0yn-14" value="-name: String&#xa;- lastName: String&#xa;- weight: double&#xa;- stature: double&#xa;- plan: plan" style="text;align=left;verticalAlign=top;spacingLeft=4;spacingRight=4;overflow=hidden;rotatable=0;points=[[0,0.5],[1,0.5]];portConstraint=eastwest;" vertex="1" parent="UkIttawQEWmzdT5pK0yn-13">
          <mxGeometry y="26" width="260" height="104" as="geometry" />
        </mxCell>
        <mxCell id="UkIttawQEWmzdT5pK0yn-15" value="" style="line;html=1;strokeWidth=1;align=left;verticalAlign=middle;spacingTop=-1;spacingLeft=3;spacingRight=3;rotatable=0;labelPosition=right;points=[];portConstraint=eastwest;" vertex="1" parent="UkIttawQEWmzdT5pK0yn-13">
          <mxGeometry y="130" width="260" height="8" as="geometry" />
        </mxCell>
        <mxCell id="UkIttawQEWmzdT5pK0yn-16" value="&lt;span style=&quot;font-size:11.0pt;line-height:115%;&lt;br/&gt;font-family:&amp;quot;Courier New&amp;quot;;mso-fareast-font-family:&amp;quot;MS Mincho&amp;quot;;mso-fareast-theme-font:&lt;br/&gt;minor-fareast;mso-bidi-font-family:&amp;quot;Times New Roman&amp;quot;;mso-bidi-theme-font:minor-bidi;&lt;br/&gt;mso-ansi-language:EN-US;mso-fareast-language:EN-US;mso-bidi-language:AR-SA&quot;&gt;+getName(): String&lt;br&gt;+ setName(String): void&lt;br&gt;+ getLastName(): String&lt;br&gt;+ setLastName(String): void&lt;br&gt;+ getWeight(): double&lt;br&gt;+ setWeight(double): void&lt;br&gt;+ getStature(): double&lt;br&gt;+ setStature(double): void&lt;br&gt;+ getPlan(): plan&lt;br&gt;+ setPlan(plan): void&lt;br&gt;&lt;br&gt;&lt;br&gt;&lt;br&gt;&lt;/span&gt;" style="text;html=1;align=left;verticalAlign=middle;resizable=0;points=[];autosize=1;strokeColor=none;fillColor=none;" vertex="1" parent="UkIttawQEWmzdT5pK0yn-13">
          <mxGeometry y="138" width="260" height="230" as="geometry" />
        </mxCell>
        <mxCell id="UkIttawQEWmzdT5pK0yn-25" value="Basic" style="swimlane;fontStyle=0;align=center;verticalAlign=top;childLayout=stackLayout;horizontal=1;startSize=26;horizontalStack=0;resizeParent=1;resizeLast=0;collapsible=1;marginBottom=0;rounded=0;shadow=0;strokeWidth=1;" vertex="1" parent="UkIttawQEWmzdT5pK0yn-1">
          <mxGeometry x="-420" y="440" width="180" height="170" as="geometry">
            <mxRectangle x="130" y="380" width="160" height="26" as="alternateBounds" />
          </mxGeometry>
        </mxCell>
        <mxCell id="UkIttawQEWmzdT5pK0yn-26" value="" style="line;html=1;strokeWidth=1;align=left;verticalAlign=middle;spacingTop=-1;spacingLeft=3;spacingRight=3;rotatable=0;labelPosition=right;points=[];portConstraint=eastwest;" vertex="1" parent="UkIttawQEWmzdT5pK0yn-25">
          <mxGeometry y="26" width="180" height="64" as="geometry" />
        </mxCell>
        <mxCell id="UkIttawQEWmzdT5pK0yn-27" value="&lt;span style=&quot;font-size:11.0pt;line-height:115%;&lt;br/&gt;font-family:&amp;quot;Courier New&amp;quot;;mso-fareast-font-family:&amp;quot;MS Mincho&amp;quot;;mso-fareast-theme-font:&lt;br/&gt;minor-fareast;mso-bidi-font-family:&amp;quot;Times New Roman&amp;quot;;mso-bidi-theme-font:minor-bidi;&lt;br/&gt;mso-ansi-language:EN-US;mso-fareast-language:EN-US;mso-bidi-language:AR-SA&quot;&gt;+getServices(): String&lt;br&gt;&lt;br&gt;&lt;br&gt;&lt;br&gt;&lt;/span&gt;" style="text;html=1;align=left;verticalAlign=middle;resizable=0;points=[];autosize=1;strokeColor=none;fillColor=none;" vertex="1" parent="UkIttawQEWmzdT5pK0yn-25">
          <mxGeometry y="90" width="180" height="80" as="geometry" />
        </mxCell>
        <mxCell id="UkIttawQEWmzdT5pK0yn-29" value="Medium" style="swimlane;fontStyle=0;align=center;verticalAlign=top;childLayout=stackLayout;horizontal=1;startSize=26;horizontalStack=0;resizeParent=1;resizeLast=0;collapsible=1;marginBottom=0;rounded=0;shadow=0;strokeWidth=1;" vertex="1" parent="UkIttawQEWmzdT5pK0yn-1">
          <mxGeometry x="-110" y="440" width="190" height="170" as="geometry">
            <mxRectangle x="130" y="380" width="160" height="26" as="alternateBounds" />
          </mxGeometry>
        </mxCell>
        <mxCell id="UkIttawQEWmzdT5pK0yn-30" value="" style="line;html=1;strokeWidth=1;align=left;verticalAlign=middle;spacingTop=-1;spacingLeft=3;spacingRight=3;rotatable=0;labelPosition=right;points=[];portConstraint=eastwest;" vertex="1" parent="UkIttawQEWmzdT5pK0yn-29">
          <mxGeometry y="26" width="190" height="64" as="geometry" />
        </mxCell>
        <mxCell id="UkIttawQEWmzdT5pK0yn-31" value="&lt;div style=&quot;&quot;&gt;&lt;span style=&quot;font-size: 11pt; background-color: transparent; color: light-dark(rgb(0, 0, 0), rgb(255, 255, 255));&quot;&gt;+&lt;/span&gt;&lt;span style=&quot;font-size: 11pt; background-color: transparent; color: light-dark(rgb(0, 0, 0), rgb(255, 255, 255));&quot;&gt;getServices(): String&lt;/span&gt;&lt;/div&gt;&lt;span style=&quot;font-size:11.0pt;line-height:115%;&lt;br/&gt;font-family:&amp;quot;Courier New&amp;quot;;mso-fareast-font-family:&amp;quot;MS Mincho&amp;quot;;mso-fareast-theme-font:&lt;br/&gt;minor-fareast;mso-bidi-font-family:&amp;quot;Times New Roman&amp;quot;;mso-bidi-theme-font:minor-bidi;&lt;br/&gt;mso-ansi-language:EN-US;mso-fareast-language:EN-US;mso-bidi-language:AR-SA&quot;&gt;&lt;br&gt;&lt;br&gt;&lt;br&gt;&lt;/span&gt;" style="text;html=1;align=left;verticalAlign=middle;resizable=0;points=[];autosize=1;strokeColor=none;fillColor=none;" vertex="1" parent="UkIttawQEWmzdT5pK0yn-29">
          <mxGeometry y="90" width="190" height="80" as="geometry" />
        </mxCell>
        <mxCell id="UkIttawQEWmzdT5pK0yn-33" value="Premium" style="swimlane;fontStyle=0;align=center;verticalAlign=top;childLayout=stackLayout;horizontal=1;startSize=26;horizontalStack=0;resizeParent=1;resizeLast=0;collapsible=1;marginBottom=0;rounded=0;shadow=0;strokeWidth=1;" vertex="1" parent="UkIttawQEWmzdT5pK0yn-1">
          <mxGeometry x="140" y="430" width="200" height="170" as="geometry">
            <mxRectangle x="130" y="380" width="160" height="26" as="alternateBounds" />
          </mxGeometry>
        </mxCell>
        <mxCell id="UkIttawQEWmzdT5pK0yn-35" value="" style="line;html=1;strokeWidth=1;align=left;verticalAlign=middle;spacingTop=-1;spacingLeft=3;spacingRight=3;rotatable=0;labelPosition=right;points=[];portConstraint=eastwest;" vertex="1" parent="UkIttawQEWmzdT5pK0yn-33">
          <mxGeometry y="26" width="200" height="64" as="geometry" />
        </mxCell>
        <mxCell id="UkIttawQEWmzdT5pK0yn-36" value="&lt;span style=&quot;font-size:11.0pt;line-height:115%;&lt;br/&gt;font-family:&amp;quot;Courier New&amp;quot;;mso-fareast-font-family:&amp;quot;MS Mincho&amp;quot;;mso-fareast-theme-font:&lt;br/&gt;minor-fareast;mso-bidi-font-family:&amp;quot;Times New Roman&amp;quot;;mso-bidi-theme-font:minor-bidi;&lt;br/&gt;mso-ansi-language:EN-US;mso-fareast-language:EN-US;mso-bidi-language:AR-SA&quot;&gt;+getServices(): String&lt;br&gt;&lt;br&gt;&lt;br&gt;&lt;br&gt;&lt;/span&gt;" style="text;html=1;align=left;verticalAlign=middle;resizable=0;points=[];autosize=1;strokeColor=none;fillColor=none;fontStyle=0" vertex="1" parent="UkIttawQEWmzdT5pK0yn-33">
          <mxGeometry y="90" width="200" height="80" as="geometry" />
        </mxCell>
        <mxCell id="4qt6q4vHOvjPI_fCA_1c-1" style="edgeStyle=orthogonalEdgeStyle;rounded=0;orthogonalLoop=1;jettySize=auto;html=1;entryX=0.5;entryY=0;entryDx=0;entryDy=0;endArrow=block;endFill=0;" edge="1" parent="UkIttawQEWmzdT5pK0yn-1" source="UkIttawQEWmzdT5pK0yn-6" target="UkIttawQEWmzdT5pK0yn-29">
          <mxGeometry relative="1" as="geometry" />
        </mxCell>
        <mxCell id="setqm-jCeqR7xxJJ6O6i-4" value="Roster" style="swimlane;fontStyle=0;childLayout=stackLayout;horizontal=1;startSize=30;horizontalStack=0;resizeParent=1;resizeParentMax=0;resizeLast=0;collapsible=1;marginBottom=0;whiteSpace=wrap;html=1;" vertex="1" parent="UkIttawQEWmzdT5pK0yn-1">
          <mxGeometry x="-570" y="-50" width="140" height="120" as="geometry" />
        </mxCell>
        <mxCell id="setqm-jCeqR7xxJJ6O6i-5" value="Item 1" style="text;strokeColor=none;fillColor=none;align=left;verticalAlign=middle;spacingLeft=4;spacingRight=4;overflow=hidden;points=[[0,0.5],[1,0.5]];portConstraint=eastwest;rotatable=0;whiteSpace=wrap;html=1;" vertex="1" parent="setqm-jCeqR7xxJJ6O6i-4">
          <mxGeometry y="30" width="140" height="30" as="geometry" />
        </mxCell>
        <mxCell id="setqm-jCeqR7xxJJ6O6i-6" value="Item 2" style="text;strokeColor=none;fillColor=none;align=left;verticalAlign=middle;spacingLeft=4;spacingRight=4;overflow=hidden;points=[[0,0.5],[1,0.5]];portConstraint=eastwest;rotatable=0;whiteSpace=wrap;html=1;" vertex="1" parent="setqm-jCeqR7xxJJ6O6i-4">
          <mxGeometry y="60" width="140" height="30" as="geometry" />
        </mxCell>
        <mxCell id="setqm-jCeqR7xxJJ6O6i-7" value="Item 3" style="text;strokeColor=none;fillColor=none;align=left;verticalAlign=middle;spacingLeft=4;spacingRight=4;overflow=hidden;points=[[0,0.5],[1,0.5]];portConstraint=eastwest;rotatable=0;whiteSpace=wrap;html=1;" vertex="1" parent="setqm-jCeqR7xxJJ6O6i-4">
          <mxGeometry y="90" width="140" height="30" as="geometry" />
        </mxCell>
      </root>
    </mxGraphModel>
  </diagram>
  <diagram name="license" id="i7YpTl5WbYj106BqUIhR">
    <mxGraphModel grid="1" page="1" gridSize="10" guides="1" tooltips="1" connect="1" arrows="1" fold="1" pageScale="1" pageWidth="827" pageHeight="1169" math="0" shadow="0">
      <root>
        <mxCell id="MU7wIZo6BrDyt1vIn904-0" />
        <mxCell id="MU7wIZo6BrDyt1vIn904-1" parent="MU7wIZo6BrDyt1vIn904-0" />
        <mxCell id="MU7wIZo6BrDyt1vIn904-2" style="edgeStyle=orthogonalEdgeStyle;rounded=0;orthogonalLoop=1;jettySize=auto;html=1;endArrow=block;endFill=0;" edge="1" parent="MU7wIZo6BrDyt1vIn904-1" source="MU7wIZo6BrDyt1vIn904-6" target="MU7wIZo6BrDyt1vIn904-17">
          <mxGeometry relative="1" as="geometry" />
        </mxCell>
        <mxCell id="MU7wIZo6BrDyt1vIn904-3" style="edgeStyle=orthogonalEdgeStyle;rounded=0;orthogonalLoop=1;jettySize=auto;html=1;endArrow=block;endFill=0;entryX=0.5;entryY=0;entryDx=0;entryDy=0;" edge="1" parent="MU7wIZo6BrDyt1vIn904-1" source="MU7wIZo6BrDyt1vIn904-6" target="HJjadGMT5bjabhuthCml-3">
          <mxGeometry relative="1" as="geometry">
            <mxPoint x="240" y="440" as="targetPoint" />
          </mxGeometry>
        </mxCell>
        <mxCell id="MU7wIZo6BrDyt1vIn904-4" style="edgeStyle=orthogonalEdgeStyle;rounded=0;orthogonalLoop=1;jettySize=auto;html=1;endArrow=none;startFill=0;" edge="1" parent="MU7wIZo6BrDyt1vIn904-1" source="MU7wIZo6BrDyt1vIn904-6" target="MU7wIZo6BrDyt1vIn904-14">
          <mxGeometry relative="1" as="geometry" />
        </mxCell>
        <mxCell id="MU7wIZo6BrDyt1vIn904-5" style="edgeStyle=orthogonalEdgeStyle;rounded=0;orthogonalLoop=1;jettySize=auto;html=1;endArrow=none;startFill=0;" edge="1" parent="MU7wIZo6BrDyt1vIn904-1" source="MU7wIZo6BrDyt1vIn904-6">
          <mxGeometry relative="1" as="geometry">
            <Array as="points">
              <mxPoint x="-110" y="33" />
              <mxPoint x="-110" y="33" />
            </Array>
            <mxPoint x="-430" y="33" as="targetPoint" />
          </mxGeometry>
        </mxCell>
        <mxCell id="MU7wIZo6BrDyt1vIn904-6" value="License" style="swimlane;fontStyle=2;align=center;verticalAlign=top;childLayout=stackLayout;horizontal=1;startSize=26;horizontalStack=0;resizeParent=1;resizeLast=0;collapsible=1;marginBottom=0;rounded=0;shadow=0;strokeWidth=1;" vertex="1" parent="MU7wIZo6BrDyt1vIn904-1">
          <mxGeometry x="-100" y="30" width="200" height="170" as="geometry">
            <mxRectangle x="230" y="140" width="160" height="26" as="alternateBounds" />
          </mxGeometry>
        </mxCell>
        <mxCell id="MU7wIZo6BrDyt1vIn904-7" value=" - name: String      &#xa; - duration: String   &#xa;  - cost: double  " style="text;align=left;verticalAlign=top;spacingLeft=4;spacingRight=4;overflow=hidden;rotatable=0;points=[[0,0.5],[1,0.5]];portConstraint=eastwest;" vertex="1" parent="MU7wIZo6BrDyt1vIn904-6">
          <mxGeometry y="26" width="200" height="54" as="geometry" />
        </mxCell>
        <mxCell id="MU7wIZo6BrDyt1vIn904-8" value="" style="line;html=1;strokeWidth=1;align=left;verticalAlign=middle;spacingTop=-1;spacingLeft=3;spacingRight=3;rotatable=0;labelPosition=right;points=[];portConstraint=eastwest;" vertex="1" parent="MU7wIZo6BrDyt1vIn904-6">
          <mxGeometry y="80" width="200" height="8" as="geometry" />
        </mxCell>
        <mxCell id="MU7wIZo6BrDyt1vIn904-9" value="+ getName(): String  &#xa;+ getDuration(): String&#xa;  + getCost(): double  &#xa;+ CalculateCost(): double (abstract) |" style="text;align=left;verticalAlign=top;spacingLeft=4;spacingRight=4;overflow=hidden;rotatable=0;points=[[0,0.5],[1,0.5]];portConstraint=eastwest;" vertex="1" parent="MU7wIZo6BrDyt1vIn904-6">
          <mxGeometry y="88" width="200" height="82" as="geometry" />
        </mxCell>
        <mxCell id="MU7wIZo6BrDyt1vIn904-13" value="User" style="swimlane;fontStyle=0;align=center;verticalAlign=top;childLayout=stackLayout;horizontal=1;startSize=26;horizontalStack=0;resizeParent=1;resizeLast=0;collapsible=1;marginBottom=0;rounded=0;shadow=0;strokeWidth=1;" vertex="1" parent="MU7wIZo6BrDyt1vIn904-1">
          <mxGeometry x="330" y="-140" width="270" height="300" as="geometry">
            <mxRectangle x="340" y="380" width="170" height="26" as="alternateBounds" />
          </mxGeometry>
        </mxCell>
        <mxCell id="MU7wIZo6BrDyt1vIn904-14" value="- name: String       &#xa;- lastName: String   &#xa;- identification: String &#xa; - direction: String  &#xa; - phone: String      &#xa; - rh: String         &#xa; - license: license  " style="text;align=left;verticalAlign=top;spacingLeft=4;spacingRight=4;overflow=hidden;rotatable=0;points=[[0,0.5],[1,0.5]];portConstraint=eastwest;" vertex="1" parent="MU7wIZo6BrDyt1vIn904-13">
          <mxGeometry y="26" width="270" height="104" as="geometry" />
        </mxCell>
        <mxCell id="MU7wIZo6BrDyt1vIn904-15" value="" style="line;html=1;strokeWidth=1;align=left;verticalAlign=middle;spacingTop=-1;spacingLeft=3;spacingRight=3;rotatable=0;labelPosition=right;points=[];portConstraint=eastwest;" vertex="1" parent="MU7wIZo6BrDyt1vIn904-13">
          <mxGeometry y="130" width="270" height="8" as="geometry" />
        </mxCell>
        <mxCell id="MU7wIZo6BrDyt1vIn904-16" value="&lt;span style=&quot;font-size:11.0pt;line-height:115%;&lt;br/&gt;font-family:&amp;quot;Courier New&amp;quot;;mso-fareast-font-family:&amp;quot;MS Mincho&amp;quot;;mso-fareast-theme-font:&lt;br/&gt;minor-fareast;mso-bidi-font-family:&amp;quot;Times New Roman&amp;quot;;mso-bidi-theme-font:minor-bidi;&lt;br/&gt;mso-ansi-language:EN-US;mso-fareast-language:EN-US;mso-bidi-language:AR-SA&quot;&gt;&lt;div&gt;+ getName(): String        &lt;br&gt;+ getLastName(): String    &lt;br&gt;+ getIdentification(): String&lt;br&gt;+ getDirection(): String  &lt;br&gt;+ getPhone(): String     &lt;br&gt;+ getRh(): String        &lt;br&gt;+ getLicense(): String&lt;/div&gt;&lt;/span&gt;" style="text;html=1;align=left;verticalAlign=middle;resizable=0;points=[];autosize=1;strokeColor=none;fillColor=none;fontFamily=Helvetica;fontStyle=0" vertex="1" parent="MU7wIZo6BrDyt1vIn904-13">
          <mxGeometry y="138" width="270" height="130" as="geometry" />
        </mxCell>
        <mxCell id="MU7wIZo6BrDyt1vIn904-17" value="LicenseA" style="swimlane;fontStyle=0;align=center;verticalAlign=top;childLayout=stackLayout;horizontal=1;startSize=26;horizontalStack=0;resizeParent=1;resizeLast=0;collapsible=1;marginBottom=0;rounded=0;shadow=0;strokeWidth=1;" vertex="1" parent="MU7wIZo6BrDyt1vIn904-1">
          <mxGeometry x="-420" y="440" width="190" height="170" as="geometry">
            <mxRectangle x="130" y="380" width="160" height="26" as="alternateBounds" />
          </mxGeometry>
        </mxCell>
        <mxCell id="MU7wIZo6BrDyt1vIn904-18" value="" style="line;html=1;strokeWidth=1;align=left;verticalAlign=middle;spacingTop=-1;spacingLeft=3;spacingRight=3;rotatable=0;labelPosition=right;points=[];portConstraint=eastwest;" vertex="1" parent="MU7wIZo6BrDyt1vIn904-17">
          <mxGeometry y="26" width="190" height="64" as="geometry" />
        </mxCell>
        <mxCell id="MU7wIZo6BrDyt1vIn904-19" value="&lt;span style=&quot;line-height: 115%;&quot;&gt;&lt;span style=&quot;font-size: 14.6667px;&quot;&gt;+ CalculateCost(): double&lt;/span&gt;&lt;/span&gt;" style="text;html=1;align=left;verticalAlign=middle;resizable=0;points=[];autosize=1;strokeColor=none;fillColor=none;" vertex="1" parent="MU7wIZo6BrDyt1vIn904-17">
          <mxGeometry y="90" width="190" height="30" as="geometry" />
        </mxCell>
        <mxCell id="MU7wIZo6BrDyt1vIn904-26" style="edgeStyle=orthogonalEdgeStyle;rounded=0;orthogonalLoop=1;jettySize=auto;html=1;entryX=0.5;entryY=0;entryDx=0;entryDy=0;endArrow=block;endFill=0;" edge="1" parent="MU7wIZo6BrDyt1vIn904-1" source="MU7wIZo6BrDyt1vIn904-9" target="HJjadGMT5bjabhuthCml-0">
          <mxGeometry relative="1" as="geometry">
            <mxPoint x="-15" y="440" as="targetPoint" />
          </mxGeometry>
        </mxCell>
        <mxCell id="HJjadGMT5bjabhuthCml-0" value="LicenseB" style="swimlane;fontStyle=0;align=center;verticalAlign=top;childLayout=stackLayout;horizontal=1;startSize=26;horizontalStack=0;resizeParent=1;resizeLast=0;collapsible=1;marginBottom=0;rounded=0;shadow=0;strokeWidth=1;" vertex="1" parent="MU7wIZo6BrDyt1vIn904-1">
          <mxGeometry x="-110" y="440" width="190" height="170" as="geometry">
            <mxRectangle x="130" y="380" width="160" height="26" as="alternateBounds" />
          </mxGeometry>
        </mxCell>
        <mxCell id="HJjadGMT5bjabhuthCml-1" value="" style="line;html=1;strokeWidth=1;align=left;verticalAlign=middle;spacingTop=-1;spacingLeft=3;spacingRight=3;rotatable=0;labelPosition=right;points=[];portConstraint=eastwest;" vertex="1" parent="HJjadGMT5bjabhuthCml-0">
          <mxGeometry y="26" width="190" height="64" as="geometry" />
        </mxCell>
        <mxCell id="HJjadGMT5bjabhuthCml-2" value="&lt;span style=&quot;line-height: 115%;&quot;&gt;&lt;span style=&quot;font-size: 14.6667px;&quot;&gt;+ CalculateCost(): double&lt;/span&gt;&lt;/span&gt;" style="text;html=1;align=left;verticalAlign=middle;resizable=0;points=[];autosize=1;strokeColor=none;fillColor=none;" vertex="1" parent="HJjadGMT5bjabhuthCml-0">
          <mxGeometry y="90" width="190" height="30" as="geometry" />
        </mxCell>
        <mxCell id="HJjadGMT5bjabhuthCml-3" value="LicenseC" style="swimlane;fontStyle=0;align=center;verticalAlign=top;childLayout=stackLayout;horizontal=1;startSize=26;horizontalStack=0;resizeParent=1;resizeLast=0;collapsible=1;marginBottom=0;rounded=0;shadow=0;strokeWidth=1;" vertex="1" parent="MU7wIZo6BrDyt1vIn904-1">
          <mxGeometry x="140" y="430" width="190" height="170" as="geometry">
            <mxRectangle x="130" y="380" width="160" height="26" as="alternateBounds" />
          </mxGeometry>
        </mxCell>
        <mxCell id="HJjadGMT5bjabhuthCml-4" value="" style="line;html=1;strokeWidth=1;align=left;verticalAlign=middle;spacingTop=-1;spacingLeft=3;spacingRight=3;rotatable=0;labelPosition=right;points=[];portConstraint=eastwest;" vertex="1" parent="HJjadGMT5bjabhuthCml-3">
          <mxGeometry y="26" width="190" height="64" as="geometry" />
        </mxCell>
        <mxCell id="HJjadGMT5bjabhuthCml-5" value="&lt;span style=&quot;line-height: 115%;&quot;&gt;&lt;span style=&quot;font-size: 14.6667px;&quot;&gt;+ CalculateCost(): double&lt;/span&gt;&lt;/span&gt;" style="text;html=1;align=left;verticalAlign=middle;resizable=0;points=[];autosize=1;strokeColor=none;fillColor=none;" vertex="1" parent="HJjadGMT5bjabhuthCml-3">
          <mxGeometry y="90" width="190" height="30" as="geometry" />
        </mxCell>
        <mxCell id="6uGGEwWN-oNQC5g76tb3-0" value="Roster" style="swimlane;fontStyle=0;childLayout=stackLayout;horizontal=1;startSize=30;horizontalStack=0;resizeParent=1;resizeParentMax=0;resizeLast=0;collapsible=1;marginBottom=0;whiteSpace=wrap;html=1;" vertex="1" parent="MU7wIZo6BrDyt1vIn904-1">
          <mxGeometry x="-570" y="-50" width="140" height="120" as="geometry" />
        </mxCell>
        <mxCell id="6uGGEwWN-oNQC5g76tb3-1" value="Item 1" style="text;strokeColor=none;fillColor=none;align=left;verticalAlign=middle;spacingLeft=4;spacingRight=4;overflow=hidden;points=[[0,0.5],[1,0.5]];portConstraint=eastwest;rotatable=0;whiteSpace=wrap;html=1;" vertex="1" parent="6uGGEwWN-oNQC5g76tb3-0">
          <mxGeometry y="30" width="140" height="30" as="geometry" />
        </mxCell>
        <mxCell id="6uGGEwWN-oNQC5g76tb3-2" value="Item 2" style="text;strokeColor=none;fillColor=none;align=left;verticalAlign=middle;spacingLeft=4;spacingRight=4;overflow=hidden;points=[[0,0.5],[1,0.5]];portConstraint=eastwest;rotatable=0;whiteSpace=wrap;html=1;" vertex="1" parent="6uGGEwWN-oNQC5g76tb3-0">
          <mxGeometry y="60" width="140" height="30" as="geometry" />
        </mxCell>
        <mxCell id="6uGGEwWN-oNQC5g76tb3-3" value="Item 3" style="text;strokeColor=none;fillColor=none;align=left;verticalAlign=middle;spacingLeft=4;spacingRight=4;overflow=hidden;points=[[0,0.5],[1,0.5]];portConstraint=eastwest;rotatable=0;whiteSpace=wrap;html=1;" vertex="1" parent="6uGGEwWN-oNQC5g76tb3-0">
          <mxGeometry y="90" width="140" height="30" as="geometry" />
        </mxCell>
      </root>
    </mxGraphModel>
  </diagram>
  <diagram name="newton" id="fGR7GoavZNhPzqArWSbq">
    <mxGraphModel dx="2108" dy="1731" grid="1" gridSize="10" guides="1" tooltips="1" connect="1" arrows="1" fold="1" page="1" pageScale="1" pageWidth="827" pageHeight="1169" math="0" shadow="0">
      <root>
        <mxCell id="CpPglk61No9BtIyaek2c-0" />
        <mxCell id="CpPglk61No9BtIyaek2c-1" parent="CpPglk61No9BtIyaek2c-0" />
        <mxCell id="CpPglk61No9BtIyaek2c-2" style="edgeStyle=orthogonalEdgeStyle;rounded=0;orthogonalLoop=1;jettySize=auto;html=1;endArrow=block;endFill=0;" parent="CpPglk61No9BtIyaek2c-1" source="CpPglk61No9BtIyaek2c-6" target="CpPglk61No9BtIyaek2c-17" edge="1">
          <mxGeometry relative="1" as="geometry" />
        </mxCell>
        <mxCell id="CpPglk61No9BtIyaek2c-3" style="edgeStyle=orthogonalEdgeStyle;rounded=0;orthogonalLoop=1;jettySize=auto;html=1;endArrow=block;endFill=0;entryX=0.5;entryY=0;entryDx=0;entryDy=0;" parent="CpPglk61No9BtIyaek2c-1" source="CpPglk61No9BtIyaek2c-6" target="CpPglk61No9BtIyaek2c-24" edge="1">
          <mxGeometry relative="1" as="geometry">
            <mxPoint x="240" y="440" as="targetPoint" />
          </mxGeometry>
        </mxCell>
        <mxCell id="CpPglk61No9BtIyaek2c-5" style="edgeStyle=orthogonalEdgeStyle;rounded=0;orthogonalLoop=1;jettySize=auto;html=1;endArrow=none;startFill=0;" parent="CpPglk61No9BtIyaek2c-1" source="CpPglk61No9BtIyaek2c-6" edge="1">
          <mxGeometry relative="1" as="geometry">
            <Array as="points">
              <mxPoint x="-110" y="33" />
              <mxPoint x="-110" y="33" />
            </Array>
            <mxPoint x="-430" y="33" as="targetPoint" />
          </mxGeometry>
        </mxCell>
        <mxCell id="CpPglk61No9BtIyaek2c-6" value="law" style="swimlane;fontStyle=2;align=center;verticalAlign=top;childLayout=stackLayout;horizontal=1;startSize=26;horizontalStack=0;resizeParent=1;resizeLast=0;collapsible=1;marginBottom=0;rounded=0;shadow=0;strokeWidth=1;" parent="CpPglk61No9BtIyaek2c-1" vertex="1">
          <mxGeometry x="-100" y="30" width="200" height="170" as="geometry">
            <mxRectangle x="230" y="140" width="160" height="26" as="alternateBounds" />
          </mxGeometry>
        </mxCell>
        <mxCell id="CpPglk61No9BtIyaek2c-7" value=" - name: String      &#xa; - duration: String   &#xa;  - cost: double  " style="text;align=left;verticalAlign=top;spacingLeft=4;spacingRight=4;overflow=hidden;rotatable=0;points=[[0,0.5],[1,0.5]];portConstraint=eastwest;" parent="CpPglk61No9BtIyaek2c-6" vertex="1">
          <mxGeometry y="26" width="200" height="54" as="geometry" />
        </mxCell>
        <mxCell id="CpPglk61No9BtIyaek2c-8" value="" style="line;html=1;strokeWidth=1;align=left;verticalAlign=middle;spacingTop=-1;spacingLeft=3;spacingRight=3;rotatable=0;labelPosition=right;points=[];portConstraint=eastwest;" parent="CpPglk61No9BtIyaek2c-6" vertex="1">
          <mxGeometry y="80" width="200" height="8" as="geometry" />
        </mxCell>
        <mxCell id="CpPglk61No9BtIyaek2c-9" value="+ getName(): String  &#xa;+ getDuration(): String&#xa;  + getCost(): double  &#xa;+ CalculateCost(): double (abstract) |" style="text;align=left;verticalAlign=top;spacingLeft=4;spacingRight=4;overflow=hidden;rotatable=0;points=[[0,0.5],[1,0.5]];portConstraint=eastwest;" parent="CpPglk61No9BtIyaek2c-6" vertex="1">
          <mxGeometry y="88" width="200" height="82" as="geometry" />
        </mxCell>
        <mxCell id="CpPglk61No9BtIyaek2c-17" value="LicenseA" style="swimlane;fontStyle=0;align=center;verticalAlign=top;childLayout=stackLayout;horizontal=1;startSize=26;horizontalStack=0;resizeParent=1;resizeLast=0;collapsible=1;marginBottom=0;rounded=0;shadow=0;strokeWidth=1;" parent="CpPglk61No9BtIyaek2c-1" vertex="1">
          <mxGeometry x="-420" y="440" width="190" height="160" as="geometry">
            <mxRectangle x="130" y="380" width="160" height="26" as="alternateBounds" />
          </mxGeometry>
        </mxCell>
        <mxCell id="CpPglk61No9BtIyaek2c-18" value="" style="line;html=1;strokeWidth=1;align=left;verticalAlign=middle;spacingTop=-1;spacingLeft=3;spacingRight=3;rotatable=0;labelPosition=right;points=[];portConstraint=eastwest;" parent="CpPglk61No9BtIyaek2c-17" vertex="1">
          <mxGeometry y="26" width="190" height="64" as="geometry" />
        </mxCell>
        <mxCell id="tLbjrSCKlC_JzA1pBCry-0" value="&lt;div&gt;+ explain(): void&lt;br&gt;+ calculate(): void&lt;/div&gt;" style="text;html=1;align=left;verticalAlign=middle;resizable=0;points=[];autosize=1;strokeColor=none;fillColor=none;fontFamily=Helvetica;" parent="CpPglk61No9BtIyaek2c-17" vertex="1">
          <mxGeometry y="90" width="190" height="70" as="geometry" />
        </mxCell>
        <mxCell id="CpPglk61No9BtIyaek2c-20" style="edgeStyle=orthogonalEdgeStyle;rounded=0;orthogonalLoop=1;jettySize=auto;html=1;entryX=0.5;entryY=0;entryDx=0;entryDy=0;endArrow=block;endFill=0;" parent="CpPglk61No9BtIyaek2c-1" source="CpPglk61No9BtIyaek2c-9" target="CpPglk61No9BtIyaek2c-21" edge="1">
          <mxGeometry relative="1" as="geometry">
            <mxPoint x="-15" y="440" as="targetPoint" />
          </mxGeometry>
        </mxCell>
        <mxCell id="CpPglk61No9BtIyaek2c-21" value="LicenseB" style="swimlane;fontStyle=0;align=center;verticalAlign=top;childLayout=stackLayout;horizontal=1;startSize=26;horizontalStack=0;resizeParent=1;resizeLast=0;collapsible=1;marginBottom=0;rounded=0;shadow=0;strokeWidth=1;" parent="CpPglk61No9BtIyaek2c-1" vertex="1">
          <mxGeometry x="-110" y="440" width="230" height="270" as="geometry">
            <mxRectangle x="130" y="380" width="160" height="26" as="alternateBounds" />
          </mxGeometry>
        </mxCell>
        <mxCell id="tLbjrSCKlC_JzA1pBCry-1" value="&lt;div style=&quot;&quot;&gt;-mass: String&lt;/div&gt;&lt;div style=&quot;&quot;&gt;-acceleration: String&lt;/div&gt;&lt;div style=&quot;&quot;&gt;-force: String&lt;/div&gt;" style="text;html=1;align=left;verticalAlign=middle;resizable=0;points=[];autosize=1;strokeColor=none;fillColor=none;" parent="CpPglk61No9BtIyaek2c-21" vertex="1">
          <mxGeometry y="26" width="230" height="60" as="geometry" />
        </mxCell>
        <mxCell id="CpPglk61No9BtIyaek2c-22" value="" style="line;html=1;strokeWidth=1;align=left;verticalAlign=middle;spacingTop=-1;spacingLeft=3;spacingRight=3;rotatable=0;labelPosition=right;points=[];portConstraint=eastwest;" parent="CpPglk61No9BtIyaek2c-21" vertex="1">
          <mxGeometry y="86" width="230" height="14" as="geometry" />
        </mxCell>
        <mxCell id="CpPglk61No9BtIyaek2c-23" value="&lt;div&gt;&lt;br&gt;&lt;/div&gt;&lt;div&gt;&lt;div&gt;+getMass(): String        &lt;br&gt;+ setMass(String): void    &lt;br&gt;+ getAcceleration(): String&lt;br&gt;+ setAcceleration(String): void &lt;br&gt;+ getForce(): String       &lt;br&gt;+ setForce(String): void  &lt;/div&gt;&lt;/div&gt;&lt;div&gt; + explain(): void     &lt;br&gt; + calculate(): void&lt;/div&gt;&lt;div&gt;&lt;br&gt;&lt;/div&gt;&lt;div&gt;&lt;br&gt;&lt;/div&gt;" style="text;html=1;align=left;verticalAlign=middle;resizable=0;points=[];autosize=1;strokeColor=none;fillColor=none;fontFamily=Helvetica;" parent="CpPglk61No9BtIyaek2c-21" vertex="1">
          <mxGeometry y="100" width="230" height="170" as="geometry" />
        </mxCell>
        <mxCell id="CpPglk61No9BtIyaek2c-24" value="LicenseC" style="swimlane;fontStyle=0;align=center;verticalAlign=top;childLayout=stackLayout;horizontal=1;startSize=26;horizontalStack=0;resizeParent=1;resizeLast=0;collapsible=1;marginBottom=0;rounded=0;shadow=0;strokeWidth=1;" parent="CpPglk61No9BtIyaek2c-1" vertex="1">
          <mxGeometry x="140" y="430" width="190" height="130" as="geometry">
            <mxRectangle x="130" y="380" width="160" height="26" as="alternateBounds" />
          </mxGeometry>
        </mxCell>
        <mxCell id="CpPglk61No9BtIyaek2c-25" value="" style="line;html=1;strokeWidth=1;align=left;verticalAlign=middle;spacingTop=-1;spacingLeft=3;spacingRight=3;rotatable=0;labelPosition=right;points=[];portConstraint=eastwest;" parent="CpPglk61No9BtIyaek2c-24" vertex="1">
          <mxGeometry y="26" width="190" height="64" as="geometry" />
        </mxCell>
        <mxCell id="CpPglk61No9BtIyaek2c-26" value="+ explain(): void&lt;br&gt;+ calculate(): void" style="text;html=1;align=left;verticalAlign=middle;resizable=0;points=[];autosize=1;strokeColor=none;fillColor=none;" parent="CpPglk61No9BtIyaek2c-24" vertex="1">
          <mxGeometry y="90" width="190" height="40" as="geometry" />
        </mxCell>
        <mxCell id="FkisC1u8oMfRWJr8Iqcj-0" value="Roster" style="swimlane;fontStyle=0;childLayout=stackLayout;horizontal=1;startSize=30;horizontalStack=0;resizeParent=1;resizeParentMax=0;resizeLast=0;collapsible=1;marginBottom=0;whiteSpace=wrap;html=1;" parent="CpPglk61No9BtIyaek2c-1" vertex="1">
          <mxGeometry x="-570" y="-50" width="140" height="120" as="geometry" />
        </mxCell>
        <mxCell id="FkisC1u8oMfRWJr8Iqcj-1" value="Item 1" style="text;strokeColor=none;fillColor=none;align=left;verticalAlign=middle;spacingLeft=4;spacingRight=4;overflow=hidden;points=[[0,0.5],[1,0.5]];portConstraint=eastwest;rotatable=0;whiteSpace=wrap;html=1;" parent="FkisC1u8oMfRWJr8Iqcj-0" vertex="1">
          <mxGeometry y="30" width="140" height="30" as="geometry" />
        </mxCell>
        <mxCell id="FkisC1u8oMfRWJr8Iqcj-2" value="Item 2" style="text;strokeColor=none;fillColor=none;align=left;verticalAlign=middle;spacingLeft=4;spacingRight=4;overflow=hidden;points=[[0,0.5],[1,0.5]];portConstraint=eastwest;rotatable=0;whiteSpace=wrap;html=1;" parent="FkisC1u8oMfRWJr8Iqcj-0" vertex="1">
          <mxGeometry y="60" width="140" height="30" as="geometry" />
        </mxCell>
        <mxCell id="FkisC1u8oMfRWJr8Iqcj-3" value="Item 3" style="text;strokeColor=none;fillColor=none;align=left;verticalAlign=middle;spacingLeft=4;spacingRight=4;overflow=hidden;points=[[0,0.5],[1,0.5]];portConstraint=eastwest;rotatable=0;whiteSpace=wrap;html=1;" parent="FkisC1u8oMfRWJr8Iqcj-0" vertex="1">
          <mxGeometry y="90" width="140" height="30" as="geometry" />
        </mxCell>
      </root>
    </mxGraphModel>
  </diagram>
</mxfile>
